<?xml version="1.0" encoding="utf-8"?>
<!-- Generator: Adobe Illustrator 27.5.0, SVG Export Plug-In . SVG Version: 6.00 Build 0)  -->
<svg version="1.1" id="Layer_1" xmlns="http://www.w3.org/2000/svg" xmlns:xlink="http://www.w3.org/1999/xlink" x="0px" y="0px"
	 viewBox="0 0 596 226" style="enable-background:new 0 0 596 226;" xml:space="preserve">
<style type="text/css">
	.st0{fill:#D6870B;}
	.st1{fill:#3D3F4C;}
</style>
<g>
	<g>
		<path class="st0" d="M127.2,6L7.6,213.2H248L127.2,6z M138.8,189.3h-91l53.4-92.5l6.9,11.9l26.5-45.9l38.6,66.9
			c7.2,12.5,7.2,27.3,0,39.8C166.1,181.9,153.2,189.3,138.8,189.3z"/>
		<path class="st0" d="M134.6,112.5l-12.1,21l-6.9-11.9l-24.7,42.8h47.9c7.8,0,11.6-5.2,12.9-7.5c1.3-2.2,3.9-8.2,0-14.9
			L134.6,112.5z"/>
	</g>
</g>
<g>
	<path class="st1" d="M350,177c0,3.3-3.4,4.9-13.7,8.3c-8.4,3-10.4,3.4-11.8,3.4c-3.8,0-4.2-3.9-4.2-6.6v-6.2
		c-5,7.5-13.4,13.3-24.9,13.3c-16.9,0-30.8-12.9-30.8-34.8c0-21.7,15.6-37.3,36-37.3c8.3,0,14.9,2.6,19.6,6.6v-16.3
		c0-8.7-10.4-4.5-10.4-10.8c0-3,3.4-4.7,14-9.1c9.1-3.7,11.2-3.9,12.6-3.9c3.4,0,4.2,3,4.2,6.5v75.3C340.7,173.9,350,171.5,350,177z
		 M320.3,155.9v-4.7c0-13.7-8.7-23.8-18.4-23.8c-9.5,0-15.7,8-15.7,21.1c0,16.3,9.2,26.4,18.6,26.4
		C313.2,174.8,320.3,167.5,320.3,155.9z"/>
	<path class="st1" d="M479.5,122.3c0,5.3-6.9,3.4-10.8,12.7l-19.6,46.7c-1.5,3.8-2.8,6.2-10.7,6.2c-8.5,0-9.6-2.8-11-6.2l-12.1-30.9
		L403,181.7c-1.4,3.1-2.2,6.2-11.1,6.2c-7.9,0-9.3-2.3-11-6.2l-20-46.7c-4.1-9.6-10.4-7.5-10.4-12.7c0-2.3,2.2-3.7,4.5-3.7
		c3.5,0,8,0.4,15.2,0.4c7,0,11-0.4,14.5-0.4c3.4,0,5.4,1.5,5.4,3.8c0,4.7-6.2,3.8-6.2,10c0,1.6,0.8,4.5,1.9,7.3l11.5,29.7l12.7-32.7
		l-0.8-1.9c-3.7-9.6-9.6-7.3-9.6-12.6c0-2.3,2-3.7,4.5-3.7c3.4,0,7.5,0.4,15,0.4c6.2,0,10.7-0.4,14.2-0.4s5.6,1.5,5.6,3.8
		c0,4.7-7.5,4.2-7.5,10c0,2.2,0.4,3.8,1.6,7.3l10,29.9l11.7-29.9c1.4-3.5,2-6.1,2-8c0-5.6-7.2-4.6-7.2-9.3c0-2.3,2.2-3.8,5.4-3.8
		c3,0,6.1,0.4,9.9,0.4c3.7,0,7.3-0.4,10.2-0.4C477.2,118.6,479.5,120.1,479.5,122.3z"/>
	<path class="st1" d="M550.9,170.6c0,1.1-0.4,2.2-1.2,3.5c-4.5,7-16.9,15.4-33.5,15.4c-20.9,0-36.4-14.1-36.4-36
		c0-22.5,17.5-37.1,37.4-37.1c19.4,0,31,13.8,31,27.1c0,3.9-1.2,4.6-3.7,5.4l-40.6,12.5c4.2,8.5,11.9,14.8,21.8,14.8
		c6.8,0,12.3-2.6,17.3-6.8c2.2-1.6,3.3-2.3,4.6-2.3C549.7,167.1,550.9,169.1,550.9,170.6z M500.4,146c0,2.2,0.1,4.3,0.5,6.4
		l23.3-7.6c2.2-0.7,3.3-1.8,3.3-4.2c0-6.2-5.4-13.8-13.1-13.8C506.2,126.7,500.4,134.1,500.4,146z"/>
	<path class="st1" d="M556.8,183.5c0-5.4,7.9-2.4,7.9-12.5v-63.3c0-8.5-8.9-4.7-8.9-10.8c0-3,3.5-4.7,13-9.1
		c8.9-3.9,10.7-4.3,12.1-4.3c3.3,0,4.2,2.6,4.2,6.5v81c0,10,8.1,7,8.1,12.5c0,1.8-1.4,3.8-4.6,3.8c-3.1,0-6.8-0.4-13.7-0.4
		c-6.8,0-10.2,0.4-13.4,0.4C558.1,187.3,556.8,185.4,556.8,183.5z"/>
</g>
</svg>
